<svg width="512" height="512" viewBox="0 0 512 512" fill="none" xmlns="http://www.w3.org/2000/svg">
  <rect width="512" height="512" rx="64" fill="#0a0a0a"/>
  <rect x="32" y="32" width="448" height="448" rx="32" fill="#1a1a1a" stroke="#3b82f6" stroke-width="2"/>
  
  <!-- Brain/AI Icon -->
  <path d="M128 160C128 128 160 96 192 96C224 96 256 128 256 160C256 192 224 224 192 224C160 224 128 192 128 160Z" fill="#3b82f6"/>
  <path d="M256 160C256 128 288 96 320 96C352 96 384 128 384 160C384 192 352 224 320 224C288 224 256 192 256 160Z" fill="#3b82f6"/>
  
  <!-- Neural Network Lines -->
  <path d="M192 160L256 160" stroke="#3b82f6" stroke-width="2" stroke-linecap="round"/>
  <path d="M256 160L320 160" stroke="#3b82f6" stroke-width="2" stroke-linecap="round"/>
  
  <!-- Code Brackets -->
  <path d="M160 320L140 340L160 360" stroke="#10b981" stroke-width="3" stroke-linecap="round" stroke-linejoin="round"/>
  <path d="M352 320L372 340L352 360" stroke="#10b981" stroke-width="3" stroke-linecap="round" stroke-linejoin="round"/>
  
  <!-- Data Points -->
  <circle cx="200" cy="280" r="4" fill="#f59e0b"/>
  <circle cx="240" cy="280" r="4" fill="#f59e0b"/>
  <circle cx="280" cy="280" r="4" fill="#f59e0b"/>
  <circle cx="320" cy="280" r="4" fill="#f59e0b"/>
  
  <!-- Connection Lines -->
  <path d="M200 280L240 280" stroke="#f59e0b" stroke-width="2"/>
  <path d="M240 280L280 280" stroke="#f59e0b" stroke-width="2"/>
  <path d="M280 280L320 280" stroke="#f59e0b" stroke-width="2"/>
  
  <!-- ML/AI Text -->
  <text x="256" y="400" text-anchor="middle" fill="#ffffff" font-family="Inter, sans-serif" font-size="24" font-weight="600">ML/AI</text>
  <text x="256" y="430" text-anchor="middle" fill="#9ca3af" font-family="Inter, sans-serif" font-size="16">Portfolio</text>
</svg>
